<?xml version="1.0" encoding="utf-8"?>
<!-- Generator: Adobe Illustrator 15.1.0, SVG Export Plug-In  -->
<!DOCTYPE svg PUBLIC "-//W3C//DTD SVG 1.1//EN" "http://www.w3.org/Graphics/SVG/1.1/DTD/svg11.dtd" [
	<!ENTITY ns_flows "http://ns.adobe.com/Flows/1.0/">
]>
<svg version="1.1"
	 xmlns="http://www.w3.org/2000/svg" xmlns:xlink="http://www.w3.org/1999/xlink" xmlns:a="http://ns.adobe.com/AdobeSVGViewerExtensions/3.0/"
	 x="0px" y="0px" width="200px" height="50px" viewBox="-6.713 -5.196 200 50"
	 overflow="visible" enable-background="new -6.713 -5.196 200 50" xml:space="preserve">
<defs>
</defs>
<path fill="#989898" d="M3.661,14.183V6.622c0-0.92-0.36-1.36-0.98-1.36c-0.6,0-0.98,0.44-0.98,1.36v7.562H0V0.34h1.7v4.181
	c0.18-0.46,0.82-0.8,1.38-0.8c1.621,0,2.28,1,2.28,2.8v7.662H3.661z"/>
<path fill="#989898" d="M9.32,14.343c-1.72,0-2.741-1.04-2.741-2.82v-1.461h1.7v1.381c0,0.92,0.4,1.34,1.041,1.34
	s1.08-0.42,1.08-1.34V8.122c0-0.78-0.34-1.2-0.96-1.2c-0.58,0-1.021,0.44-1.021,1.2v0.08H6.7L7,1.14h4.901v1.58H8.62l-0.2,3.441
	c0.36-0.44,0.94-0.721,1.561-0.721c1.6,0,2.14,1.221,2.14,2.641v3.441C12.121,13.303,11.041,14.343,9.32,14.343z"/>
<path fill="#989898" d="M28.561,14.183V6.622c0-0.92-0.36-1.36-0.98-1.36c-0.6,0-0.98,0.44-0.98,1.36v7.562h-1.7V0.34h1.7v4.181
	c0.18-0.46,0.82-0.8,1.38-0.8c1.621,0,2.28,1,2.28,2.8v7.662H28.561z"/>
<path fill="#989898" d="M34.381,14.343c-1.721,0-2.761-1.04-2.761-2.82V3.801c0-1.781,1.02-2.821,2.741-2.821
	c1.72,0,2.72,1.04,2.72,2.821v1.46h-1.7v-1.38c0-0.921-0.38-1.341-1.02-1.341S33.34,2.96,33.34,3.881v3.101
	c0.18-0.461,0.84-0.801,1.42-0.801c1.62,0,2.38,1.021,2.38,2.821v2.521C37.141,13.303,36.101,14.343,34.381,14.343z M35.421,9.082
	c0-0.92-0.4-1.359-1.04-1.359S33.34,8.162,33.34,9.082v2.361c0,0.92,0.4,1.34,1.041,1.34s1.04-0.42,1.04-1.34V9.082z"/>
<path fill="#989898" d="M56.871,14.343c-0.7,0-1.24-0.38-1.48-0.94v0.78H52.83V0.34h2.621v4.201c0.28-0.521,0.8-0.82,1.42-0.82
	c1.54,0,2.4,0.96,2.4,2.88v4.861C59.271,13.383,58.411,14.343,56.871,14.343z M56.651,6.801c0-0.46-0.28-0.72-0.6-0.72
	c-0.32,0-0.6,0.26-0.6,0.72v4.461c0,0.46,0.28,0.721,0.6,0.721c0.32,0,0.6-0.261,0.6-0.721V6.801z"/>
<path fill="#989898" d="M80.56,14.183h-1.7l1.9-10.302h1.7L80.56,14.183z M82.761,2.321H81.06L81.44,0.3h1.7L82.761,2.321z"/>
<g>
	<g>
		<path fill="#989898" d="M99.799,0.35c0.231,0,0.45,0.047,0.652,0.138c0.204,0.092,0.386,0.214,0.542,0.364
			c0.157,0.152,0.281,0.333,0.372,0.547c0.093,0.213,0.138,0.435,0.138,0.666c0,0.243-0.045,0.467-0.138,0.674
			c-0.091,0.207-0.215,0.385-0.372,0.536c-0.156,0.152-0.339,0.272-0.545,0.361c-0.207,0.088-0.426,0.134-0.649,0.134
			c-0.242,0-0.468-0.045-0.675-0.134c-0.207-0.089-0.387-0.209-0.537-0.361c-0.15-0.15-0.271-0.329-0.364-0.536
			c-0.092-0.207-0.138-0.431-0.138-0.674c0-0.231,0.046-0.453,0.138-0.666c0.093-0.214,0.214-0.395,0.364-0.547
			c0.15-0.15,0.33-0.272,0.537-0.364C99.332,0.397,99.557,0.35,99.799,0.35z M99.799,5.296c0.231,0,0.45,0.045,0.652,0.137
			c0.204,0.091,0.386,0.214,0.542,0.365c0.157,0.15,0.281,0.333,0.372,0.545c0.093,0.214,0.138,0.435,0.138,0.667
			c0,0.243-0.045,0.467-0.138,0.673c-0.091,0.209-0.215,0.388-0.372,0.538c-0.156,0.15-0.339,0.274-0.545,0.364
			c-0.207,0.093-0.426,0.138-0.649,0.138c-0.242,0-0.468-0.045-0.675-0.138c-0.207-0.09-0.387-0.213-0.537-0.364
			s-0.271-0.329-0.364-0.538c-0.092-0.207-0.138-0.431-0.138-0.673c0-0.232,0.046-0.453,0.138-0.667
			c0.093-0.212,0.214-0.395,0.364-0.545c0.15-0.15,0.33-0.274,0.537-0.365C99.332,5.342,99.557,5.296,99.799,5.296z M99.799,10.25
			c0.231,0,0.45,0.045,0.652,0.134c0.204,0.089,0.386,0.208,0.542,0.359c0.157,0.15,0.281,0.333,0.372,0.546
			c0.093,0.212,0.138,0.435,0.138,0.665c0,0.243-0.045,0.469-0.138,0.675c-0.091,0.208-0.215,0.386-0.372,0.539
			c-0.156,0.15-0.339,0.271-0.545,0.362c-0.207,0.092-0.426,0.137-0.649,0.137c-0.473,0-0.877-0.166-1.212-0.499
			c-0.334-0.335-0.502-0.74-0.502-1.214c0-0.23,0.046-0.453,0.138-0.665c0.093-0.213,0.214-0.396,0.364-0.546s0.33-0.27,0.537-0.359
			C99.332,10.295,99.557,10.25,99.799,10.25z M113.775,0.866c0.182,0,0.342,0.065,0.475,0.199s0.2,0.297,0.2,0.493V2.57
			c0,0.196-0.067,0.36-0.2,0.493s-0.293,0.199-0.475,0.199h-10.361c-0.196,0-0.359-0.067-0.494-0.199
			c-0.132-0.132-0.199-0.297-0.199-0.493V1.558c0-0.196,0.067-0.358,0.199-0.493c0.135-0.134,0.298-0.199,0.494-0.199H113.775
			L113.775,0.866z M113.775,5.811c0.182,0,0.342,0.067,0.475,0.199c0.133,0.134,0.2,0.299,0.2,0.493v1.013
			c0,0.195-0.067,0.36-0.2,0.494c-0.133,0.133-0.293,0.199-0.475,0.199h-10.361c-0.196,0-0.359-0.066-0.494-0.199
			c-0.132-0.134-0.199-0.299-0.199-0.494V6.502c0-0.194,0.067-0.358,0.199-0.493c0.135-0.132,0.298-0.199,0.494-0.199H113.775
			L113.775,5.811z M113.775,10.757c0.182,0,0.342,0.067,0.475,0.199c0.133,0.132,0.2,0.297,0.2,0.493v1.013
			c0,0.195-0.067,0.356-0.2,0.483c-0.133,0.126-0.293,0.19-0.475,0.19h-10.361c-0.196,0-0.359-0.063-0.494-0.19
			c-0.132-0.127-0.199-0.288-0.199-0.483v-1.013c0-0.195,0.067-0.361,0.199-0.493c0.135-0.132,0.298-0.199,0.494-0.199H113.775
			L113.775,10.757z"/>
	</g>
</g>
<path fill="#989898" d="M148.505,4.083c0-0.556,0.108-1.082,0.324-1.581c0.214-0.498,0.505-0.932,0.873-1.302
	c0.366-0.37,0.799-0.663,1.293-0.877C151.487,0.108,152.02,0,152.588,0c0.544,0,1.069,0.104,1.577,0.313
	c0.506,0.209,0.945,0.5,1.318,0.873c0.052,0.05,0.12,0.116,0.206,0.195c0.085,0.078,0.167,0.159,0.245,0.237
	c0.08,0.079,0.148,0.161,0.205,0.242c0.058,0.082,0.086,0.161,0.086,0.236c0,0.114-0.038,0.213-0.114,0.295
	c-0.038,0.052-0.117,0.089-0.237,0.114c-0.297,0.064-0.575,0.135-0.836,0.216c-0.258,0.076-0.532,0.178-0.816,0.298
	c-0.026,0.025-0.076,0.039-0.151,0.039c-0.076,0-0.157-0.036-0.242-0.102c-0.085-0.064-0.185-0.133-0.294-0.203
	c-0.111-0.07-0.245-0.137-0.399-0.205c-0.155-0.067-0.338-0.099-0.547-0.099c-0.221,0-0.431,0.043-0.631,0.127
	c-0.2,0.086-0.37,0.204-0.515,0.354c-0.141,0.146-0.255,0.317-0.34,0.51c-0.085,0.194-0.127,0.408-0.127,0.642
	c0,0.259,0.053,0.498,0.166,0.713c0.111,0.215,0.245,0.416,0.405,0.602c0.163,0.186,0.341,0.366,0.538,0.536
	c0.196,0.17,0.377,0.339,0.542,0.504l1.708,1.688c0.145,0.159,0.317,0.277,0.519,0.354c0.199,0.075,0.409,0.114,0.63,0.114
	c0.273,0,0.503-0.051,0.694-0.154c0.189-0.101,0.335-0.15,0.438-0.15c0.074,0,0.196,0.068,0.37,0.203
	c0.169,0.136,0.346,0.291,0.525,0.465c0.181,0.173,0.339,0.348,0.475,0.522c0.136,0.175,0.204,0.309,0.204,0.404
	c0,0.184-0.115,0.344-0.341,0.484c-0.229,0.139-0.49,0.262-0.788,0.366c-0.299,0.104-0.595,0.187-0.895,0.246
	c-0.296,0.062-0.523,0.092-0.684,0.092c-0.543,0-1.065-0.104-1.56-0.314c-0.499-0.207-0.942-0.5-1.336-0.873l-2.877-2.896
	c-0.387-0.375-0.684-0.815-0.893-1.326C148.61,5.154,148.505,4.627,148.505,4.083z M156.691,4.102c0.544,0,1.07,0.104,1.577,0.314
	c0.506,0.207,0.945,0.499,1.318,0.873l2.876,2.896c0.39,0.374,0.685,0.816,0.894,1.323c0.21,0.511,0.314,1.038,0.314,1.583
	c0,0.57-0.106,1.1-0.316,1.59c-0.214,0.49-0.505,0.922-0.875,1.29c-0.372,0.371-0.806,0.664-1.307,0.879
	c-0.502,0.216-1.028,0.323-1.586,0.323c-0.543,0-1.069-0.107-1.571-0.323c-0.503-0.215-0.944-0.51-1.324-0.883
	c-0.05-0.05-0.118-0.113-0.205-0.186c-0.085-0.071-0.165-0.151-0.241-0.236c-0.077-0.084-0.145-0.168-0.205-0.252
	c-0.059-0.082-0.09-0.164-0.09-0.246c0-0.114,0.041-0.204,0.124-0.266c0.038-0.052,0.114-0.089,0.229-0.116
	c0.295-0.062,0.575-0.134,0.834-0.213c0.26-0.078,0.533-0.184,0.818-0.318c0.075-0.024,0.13-0.038,0.161-0.038
	c0.075,0,0.157,0.034,0.241,0.1c0.085,0.066,0.181,0.135,0.29,0.203c0.107,0.07,0.236,0.138,0.39,0.205
	c0.151,0.067,0.336,0.1,0.55,0.1c0.456,0,0.84-0.157,1.149-0.469c0.31-0.313,0.465-0.695,0.465-1.145c0-0.259-0.052-0.5-0.161-0.723
	c-0.108-0.221-0.247-0.422-0.418-0.602c-0.171-0.181-0.349-0.356-0.537-0.527c-0.186-0.17-0.363-0.339-0.535-0.504l-1.69-1.708
	c-0.337-0.311-0.724-0.468-1.168-0.475c-0.273,0-0.501,0.054-0.689,0.166c-0.185,0.111-0.332,0.166-0.441,0.166
	c-0.076,0-0.197-0.068-0.364-0.203c-0.169-0.136-0.342-0.292-0.523-0.466c-0.181-0.173-0.338-0.351-0.475-0.532
	c-0.136-0.18-0.203-0.312-0.203-0.393c0-0.184,0.112-0.344,0.337-0.484c0.226-0.139,0.484-0.261,0.783-0.366
	c0.297-0.105,0.594-0.188,0.893-0.246C156.304,4.131,156.533,4.102,156.691,4.102z"/>
<path fill="#989898" d="M139.287,8.804h-15c-0.828,0-1.5-0.671-1.5-1.5s0.672-1.5,1.5-1.5h15c0.828,0,1.5,0.671,1.5,1.5
	S140.115,8.804,139.287,8.804z"/>
<path fill="#333333" d="M3.661,39.183v-7.562c0-0.92-0.36-1.36-0.98-1.36c-0.6,0-0.98,0.44-0.98,1.36v7.562H0V25.34h1.7v4.181
	c0.18-0.46,0.82-0.8,1.38-0.8c1.621,0,2.28,1,2.28,2.8v7.662H3.661z"/>
<path fill="#333333" d="M9.32,39.343c-1.72,0-2.741-1.04-2.741-2.82v-1.461h1.7v1.381c0,0.92,0.4,1.34,1.041,1.34
	s1.08-0.42,1.08-1.34v-3.321c0-0.78-0.34-1.2-0.96-1.2c-0.58,0-1.021,0.44-1.021,1.2v0.08H6.7L7,26.14h4.901v1.58H8.62l-0.2,3.441
	c0.36-0.44,0.94-0.721,1.561-0.721c1.6,0,2.14,1.221,2.14,2.641v3.441C12.121,38.303,11.041,39.343,9.32,39.343z"/>
<path fill="#333333" d="M28.561,39.183v-7.562c0-0.92-0.36-1.36-0.98-1.36c-0.6,0-0.98,0.44-0.98,1.36v7.562h-1.7V25.34h1.7v4.181
	c0.18-0.46,0.82-0.8,1.38-0.8c1.621,0,2.28,1,2.28,2.8v7.662H28.561z"/>
<path fill="#333333" d="M34.381,39.343c-1.721,0-2.761-1.04-2.761-2.82v-7.722c0-1.781,1.02-2.821,2.741-2.821
	c1.72,0,2.72,1.04,2.72,2.821v1.46h-1.7v-1.38c0-0.921-0.38-1.341-1.02-1.341s-1.021,0.42-1.021,1.341v3.101
	c0.18-0.461,0.84-0.801,1.42-0.801c1.62,0,2.38,1.021,2.38,2.821v2.521C37.141,38.303,36.101,39.343,34.381,39.343z M35.421,34.082
	c0-0.92-0.4-1.359-1.04-1.359s-1.041,0.439-1.041,1.359v2.361c0,0.92,0.4,1.34,1.041,1.34s1.04-0.42,1.04-1.34V34.082z"/>
<path fill="#333333" d="M56.871,39.343c-0.7,0-1.24-0.38-1.48-0.94v0.78H52.83V25.34h2.621v4.201c0.28-0.521,0.8-0.82,1.42-0.82
	c1.54,0,2.4,0.96,2.4,2.88v4.861C59.271,38.383,58.411,39.343,56.871,39.343z M56.651,31.801c0-0.46-0.28-0.72-0.6-0.72
	c-0.32,0-0.6,0.26-0.6,0.72v4.461c0,0.46,0.28,0.721,0.6,0.721c0.32,0,0.6-0.261,0.6-0.721V31.801z"/>
<path fill="#333333" d="M80.56,39.183h-1.7l1.9-10.302h1.7L80.56,39.183z M82.761,27.321H81.06l0.38-2.021h1.7L82.761,27.321z"/>
<g>
	<g>
		<path fill="#333333" d="M99.799,25.35c0.231,0,0.45,0.047,0.652,0.138c0.204,0.092,0.386,0.214,0.542,0.364
			c0.157,0.152,0.281,0.333,0.372,0.547c0.093,0.213,0.138,0.435,0.138,0.666c0,0.243-0.045,0.467-0.138,0.674
			c-0.091,0.207-0.215,0.385-0.372,0.536c-0.156,0.152-0.339,0.272-0.545,0.361c-0.207,0.088-0.426,0.134-0.649,0.134
			c-0.242,0-0.468-0.045-0.675-0.134c-0.207-0.089-0.387-0.209-0.537-0.361c-0.15-0.15-0.271-0.329-0.364-0.536
			c-0.092-0.207-0.138-0.431-0.138-0.674c0-0.231,0.046-0.453,0.138-0.666c0.093-0.214,0.214-0.395,0.364-0.547
			c0.15-0.15,0.33-0.272,0.537-0.364C99.332,25.397,99.557,25.35,99.799,25.35z M99.799,30.296c0.231,0,0.45,0.045,0.652,0.137
			c0.204,0.091,0.386,0.214,0.542,0.365c0.157,0.15,0.281,0.333,0.372,0.545c0.093,0.214,0.138,0.435,0.138,0.667
			c0,0.243-0.045,0.467-0.138,0.673c-0.091,0.209-0.215,0.388-0.372,0.538c-0.156,0.15-0.339,0.274-0.545,0.364
			c-0.207,0.093-0.426,0.138-0.649,0.138c-0.242,0-0.468-0.045-0.675-0.138c-0.207-0.09-0.387-0.213-0.537-0.364
			s-0.271-0.329-0.364-0.538c-0.092-0.207-0.138-0.431-0.138-0.673c0-0.232,0.046-0.453,0.138-0.667
			c0.093-0.212,0.214-0.395,0.364-0.545c0.15-0.15,0.33-0.274,0.537-0.365C99.332,30.342,99.557,30.296,99.799,30.296z
			 M99.799,35.25c0.231,0,0.45,0.045,0.652,0.134c0.204,0.089,0.386,0.208,0.542,0.359c0.157,0.15,0.281,0.333,0.372,0.546
			c0.093,0.213,0.138,0.436,0.138,0.666c0,0.242-0.045,0.469-0.138,0.675c-0.091,0.208-0.215,0.386-0.372,0.538
			c-0.156,0.15-0.339,0.271-0.545,0.362c-0.207,0.092-0.426,0.138-0.649,0.138c-0.473,0-0.877-0.166-1.212-0.5
			c-0.334-0.335-0.502-0.739-0.502-1.213c0-0.23,0.046-0.453,0.138-0.666c0.093-0.213,0.214-0.396,0.364-0.546
			s0.33-0.27,0.537-0.359C99.332,35.295,99.557,35.25,99.799,35.25z M113.775,25.866c0.182,0,0.342,0.065,0.475,0.199
			s0.2,0.297,0.2,0.493v1.012c0,0.196-0.067,0.36-0.2,0.493s-0.293,0.199-0.475,0.199h-10.361c-0.196,0-0.359-0.067-0.494-0.199
			c-0.132-0.132-0.199-0.297-0.199-0.493v-1.012c0-0.196,0.067-0.358,0.199-0.493c0.135-0.134,0.298-0.199,0.494-0.199H113.775
			L113.775,25.866z M113.775,30.811c0.182,0,0.342,0.067,0.475,0.199c0.133,0.134,0.2,0.299,0.2,0.493v1.013
			c0,0.195-0.067,0.36-0.2,0.494c-0.133,0.133-0.293,0.199-0.475,0.199h-10.361c-0.196,0-0.359-0.066-0.494-0.199
			c-0.132-0.134-0.199-0.299-0.199-0.494v-1.013c0-0.194,0.067-0.358,0.199-0.493c0.135-0.132,0.298-0.199,0.494-0.199H113.775
			L113.775,30.811z M113.775,35.757c0.182,0,0.342,0.067,0.475,0.2c0.133,0.131,0.2,0.297,0.2,0.492v1.013
			c0,0.195-0.067,0.356-0.2,0.483s-0.293,0.189-0.475,0.189h-10.361c-0.196,0-0.359-0.062-0.494-0.189
			c-0.132-0.127-0.199-0.288-0.199-0.483v-1.013c0-0.195,0.067-0.361,0.199-0.492c0.135-0.133,0.298-0.2,0.494-0.2H113.775
			L113.775,35.757z"/>
	</g>
</g>
<path fill="#333333" d="M148.505,29.083c0-0.556,0.108-1.082,0.324-1.581c0.214-0.498,0.505-0.932,0.873-1.302
	c0.366-0.37,0.799-0.663,1.293-0.877c0.491-0.215,1.024-0.323,1.593-0.323c0.544,0,1.069,0.104,1.577,0.313
	c0.506,0.209,0.945,0.5,1.318,0.873c0.052,0.05,0.12,0.116,0.206,0.195c0.085,0.078,0.167,0.159,0.245,0.237
	c0.08,0.079,0.148,0.161,0.205,0.242c0.058,0.082,0.086,0.161,0.086,0.236c0,0.114-0.038,0.213-0.114,0.295
	c-0.038,0.052-0.117,0.089-0.237,0.114c-0.297,0.064-0.575,0.135-0.836,0.216c-0.258,0.076-0.532,0.178-0.816,0.298
	c-0.026,0.025-0.076,0.039-0.151,0.039c-0.076,0-0.157-0.036-0.242-0.102c-0.085-0.064-0.185-0.133-0.294-0.203
	c-0.111-0.07-0.245-0.137-0.399-0.205c-0.155-0.067-0.338-0.099-0.547-0.099c-0.221,0-0.431,0.043-0.631,0.127
	c-0.2,0.086-0.37,0.204-0.515,0.354c-0.141,0.146-0.255,0.317-0.34,0.51c-0.085,0.194-0.127,0.408-0.127,0.642
	c0,0.259,0.053,0.498,0.166,0.713c0.111,0.215,0.245,0.416,0.405,0.602c0.163,0.186,0.341,0.366,0.538,0.536
	c0.196,0.17,0.377,0.339,0.542,0.504l1.708,1.688c0.145,0.159,0.317,0.277,0.519,0.354c0.199,0.075,0.409,0.114,0.63,0.114
	c0.273,0,0.503-0.051,0.694-0.154c0.189-0.101,0.335-0.15,0.438-0.15c0.074,0,0.196,0.068,0.37,0.203
	c0.169,0.136,0.346,0.291,0.525,0.465c0.181,0.173,0.339,0.348,0.475,0.522c0.136,0.175,0.204,0.309,0.204,0.404
	c0,0.184-0.115,0.344-0.341,0.484c-0.229,0.139-0.49,0.262-0.788,0.366c-0.299,0.105-0.595,0.187-0.895,0.246
	c-0.296,0.062-0.523,0.092-0.684,0.092c-0.543,0-1.065-0.104-1.56-0.314c-0.499-0.207-0.942-0.5-1.336-0.873l-2.877-2.896
	c-0.387-0.375-0.684-0.815-0.893-1.326C148.61,30.154,148.505,29.627,148.505,29.083z M156.691,29.102
	c0.544,0,1.07,0.104,1.577,0.314c0.506,0.207,0.945,0.499,1.318,0.873l2.876,2.896c0.39,0.374,0.685,0.816,0.894,1.323
	c0.21,0.511,0.314,1.038,0.314,1.583c0,0.569-0.106,1.1-0.316,1.59c-0.214,0.49-0.505,0.922-0.875,1.29
	c-0.372,0.371-0.806,0.663-1.307,0.879c-0.502,0.216-1.028,0.323-1.586,0.323c-0.543,0-1.069-0.107-1.571-0.323
	c-0.503-0.216-0.944-0.51-1.324-0.884c-0.05-0.05-0.118-0.112-0.205-0.186c-0.085-0.071-0.165-0.151-0.241-0.236
	c-0.077-0.084-0.145-0.168-0.205-0.252c-0.059-0.082-0.09-0.164-0.09-0.246c0-0.113,0.041-0.203,0.124-0.266
	c0.038-0.052,0.114-0.088,0.229-0.115c0.295-0.062,0.575-0.135,0.834-0.213c0.26-0.078,0.533-0.185,0.818-0.318
	c0.075-0.024,0.13-0.037,0.161-0.037c0.075,0,0.157,0.033,0.241,0.1c0.085,0.066,0.181,0.135,0.29,0.203
	c0.107,0.07,0.236,0.138,0.39,0.205c0.151,0.066,0.336,0.1,0.55,0.1c0.456,0,0.84-0.158,1.149-0.469
	c0.31-0.314,0.465-0.695,0.465-1.145c0-0.26-0.052-0.5-0.161-0.723c-0.108-0.221-0.247-0.422-0.418-0.602
	c-0.171-0.181-0.349-0.356-0.537-0.527c-0.186-0.17-0.363-0.339-0.535-0.504l-1.69-1.708c-0.337-0.311-0.724-0.468-1.168-0.475
	c-0.273,0-0.501,0.054-0.689,0.166c-0.185,0.111-0.332,0.166-0.441,0.166c-0.076,0-0.197-0.068-0.364-0.203
	c-0.169-0.136-0.342-0.292-0.523-0.466c-0.181-0.173-0.338-0.351-0.475-0.532c-0.136-0.18-0.203-0.312-0.203-0.393
	c0-0.184,0.112-0.344,0.337-0.484c0.226-0.139,0.484-0.261,0.783-0.366c0.297-0.105,0.594-0.188,0.893-0.246
	C156.304,29.131,156.533,29.102,156.691,29.102z"/>
<path fill="#333333" d="M139.287,33.804h-15c-0.828,0-1.5-0.671-1.5-1.5s0.672-1.5,1.5-1.5h15c0.828,0,1.5,0.671,1.5,1.5
	S140.115,33.804,139.287,33.804z"/>
</svg>
